<mxfile host="app.diagrams.net" agent="Mozilla/5.0 (Windows NT 10.0; Win64; x64) AppleWebKit/537.36 (KHTML, like Gecko) Chrome/129.0.0.0 Safari/537.36" version="24.8.0" pages="2">
  <diagram name="array to tree" id="fg2EkdfyWtooxhBYCSgS">
    <mxGraphModel dx="1434" dy="756" grid="1" gridSize="10" guides="1" tooltips="1" connect="1" arrows="1" fold="1" page="1" pageScale="1" pageWidth="850" pageHeight="1100" math="0" shadow="0">
      <root>
        <mxCell id="0" />
        <mxCell id="1" parent="0" />
        <mxCell id="K3X2iz20J7sULDPaeyyS-6" style="edgeStyle=orthogonalEdgeStyle;rounded=0;orthogonalLoop=1;jettySize=auto;html=1;exitX=0.5;exitY=1;exitDx=0;exitDy=0;entryX=0.5;entryY=0;entryDx=0;entryDy=0;" parent="1" source="apOiOVCQR8lEE52SxFyO-1" target="apOiOVCQR8lEE52SxFyO-3" edge="1">
          <mxGeometry relative="1" as="geometry" />
        </mxCell>
        <mxCell id="apOiOVCQR8lEE52SxFyO-1" value="Start" style="ellipse;whiteSpace=wrap;html=1;" parent="1" vertex="1">
          <mxGeometry x="180" y="50" width="120" height="80" as="geometry" />
        </mxCell>
        <mxCell id="K3X2iz20J7sULDPaeyyS-8" style="edgeStyle=orthogonalEdgeStyle;rounded=0;orthogonalLoop=1;jettySize=auto;html=1;exitX=0.5;exitY=1;exitDx=0;exitDy=0;entryX=0.5;entryY=0;entryDx=0;entryDy=0;" parent="1" source="apOiOVCQR8lEE52SxFyO-2" target="apOiOVCQR8lEE52SxFyO-4" edge="1">
          <mxGeometry relative="1" as="geometry" />
        </mxCell>
        <mxCell id="apOiOVCQR8lEE52SxFyO-2" value="Input Array[]" style="rounded=1;whiteSpace=wrap;html=1;" parent="1" vertex="1">
          <mxGeometry x="180" y="260" width="120" height="60" as="geometry" />
        </mxCell>
        <mxCell id="K3X2iz20J7sULDPaeyyS-7" style="edgeStyle=orthogonalEdgeStyle;rounded=0;orthogonalLoop=1;jettySize=auto;html=1;exitX=0.5;exitY=1;exitDx=0;exitDy=0;entryX=0.5;entryY=0;entryDx=0;entryDy=0;" parent="1" source="apOiOVCQR8lEE52SxFyO-3" target="apOiOVCQR8lEE52SxFyO-2" edge="1">
          <mxGeometry relative="1" as="geometry" />
        </mxCell>
        <mxCell id="apOiOVCQR8lEE52SxFyO-3" value="Initialize Binary&lt;span style=&quot;background-color: initial;&quot;&gt;Tree&lt;/span&gt;" style="rounded=1;whiteSpace=wrap;html=1;" parent="1" vertex="1">
          <mxGeometry x="180" y="170" width="120" height="60" as="geometry" />
        </mxCell>
        <mxCell id="K3X2iz20J7sULDPaeyyS-9" style="edgeStyle=orthogonalEdgeStyle;rounded=0;orthogonalLoop=1;jettySize=auto;html=1;exitX=0.5;exitY=1;exitDx=0;exitDy=0;entryX=0.5;entryY=0;entryDx=0;entryDy=0;" parent="1" source="apOiOVCQR8lEE52SxFyO-4" target="apOiOVCQR8lEE52SxFyO-5" edge="1">
          <mxGeometry relative="1" as="geometry" />
        </mxCell>
        <mxCell id="apOiOVCQR8lEE52SxFyO-4" value="Function&lt;div&gt;go_through_array&lt;/div&gt;" style="rounded=1;whiteSpace=wrap;html=1;" parent="1" vertex="1">
          <mxGeometry x="180" y="360" width="120" height="60" as="geometry" />
        </mxCell>
        <mxCell id="K3X2iz20J7sULDPaeyyS-5" style="edgeStyle=orthogonalEdgeStyle;rounded=0;orthogonalLoop=1;jettySize=auto;html=1;exitX=0.5;exitY=1;exitDx=0;exitDy=0;entryX=0.5;entryY=0;entryDx=0;entryDy=0;" parent="1" source="apOiOVCQR8lEE52SxFyO-5" target="K3X2iz20J7sULDPaeyyS-1" edge="1">
          <mxGeometry relative="1" as="geometry" />
        </mxCell>
        <mxCell id="apOiOVCQR8lEE52SxFyO-5" value="Insert element" style="rounded=1;whiteSpace=wrap;html=1;" parent="1" vertex="1">
          <mxGeometry x="180" y="470" width="120" height="60" as="geometry" />
        </mxCell>
        <mxCell id="apOiOVCQR8lEE52SxFyO-13" style="edgeStyle=orthogonalEdgeStyle;rounded=0;orthogonalLoop=1;jettySize=auto;html=1;exitX=0.5;exitY=1;exitDx=0;exitDy=0;entryX=0.5;entryY=0;entryDx=0;entryDy=0;" parent="1" source="apOiOVCQR8lEE52SxFyO-6" target="apOiOVCQR8lEE52SxFyO-12" edge="1">
          <mxGeometry relative="1" as="geometry" />
        </mxCell>
        <mxCell id="apOiOVCQR8lEE52SxFyO-15" style="edgeStyle=orthogonalEdgeStyle;rounded=0;orthogonalLoop=1;jettySize=auto;html=1;exitX=1;exitY=0.5;exitDx=0;exitDy=0;entryX=0;entryY=0.5;entryDx=0;entryDy=0;" parent="1" source="apOiOVCQR8lEE52SxFyO-6" target="apOiOVCQR8lEE52SxFyO-7" edge="1">
          <mxGeometry relative="1" as="geometry" />
        </mxCell>
        <mxCell id="apOiOVCQR8lEE52SxFyO-6" value="tree.node[i] = None" style="rhombus;whiteSpace=wrap;html=1;" parent="1" vertex="1">
          <mxGeometry x="175" y="800" width="130" height="130" as="geometry" />
        </mxCell>
        <mxCell id="apOiOVCQR8lEE52SxFyO-7" value="create tree.node(key)" style="rounded=1;whiteSpace=wrap;html=1;" parent="1" vertex="1">
          <mxGeometry x="425" y="835" width="120" height="60" as="geometry" />
        </mxCell>
        <mxCell id="apOiOVCQR8lEE52SxFyO-11" value="True" style="text;html=1;align=center;verticalAlign=middle;resizable=0;points=[];autosize=1;strokeColor=none;fillColor=none;" parent="1" vertex="1">
          <mxGeometry x="300" y="835" width="50" height="30" as="geometry" />
        </mxCell>
        <mxCell id="apOiOVCQR8lEE52SxFyO-17" style="edgeStyle=orthogonalEdgeStyle;rounded=0;orthogonalLoop=1;jettySize=auto;html=1;exitX=0.5;exitY=1;exitDx=0;exitDy=0;entryX=0.5;entryY=0;entryDx=0;entryDy=0;" parent="1" source="apOiOVCQR8lEE52SxFyO-12" target="apOiOVCQR8lEE52SxFyO-16" edge="1">
          <mxGeometry relative="1" as="geometry" />
        </mxCell>
        <mxCell id="apOiOVCQR8lEE52SxFyO-20" style="edgeStyle=orthogonalEdgeStyle;rounded=0;orthogonalLoop=1;jettySize=auto;html=1;exitX=1;exitY=0.5;exitDx=0;exitDy=0;entryX=0;entryY=0.5;entryDx=0;entryDy=0;" parent="1" source="apOiOVCQR8lEE52SxFyO-12" target="apOiOVCQR8lEE52SxFyO-19" edge="1">
          <mxGeometry relative="1" as="geometry" />
        </mxCell>
        <mxCell id="apOiOVCQR8lEE52SxFyO-12" value="key &amp;lt; tree.node.value" style="rhombus;whiteSpace=wrap;html=1;" parent="1" vertex="1">
          <mxGeometry x="170" y="990" width="140" height="140" as="geometry" />
        </mxCell>
        <mxCell id="apOiOVCQR8lEE52SxFyO-14" value="False" style="text;html=1;align=center;verticalAlign=middle;resizable=0;points=[];autosize=1;strokeColor=none;fillColor=none;" parent="1" vertex="1">
          <mxGeometry x="240" y="920" width="50" height="30" as="geometry" />
        </mxCell>
        <mxCell id="apOiOVCQR8lEE52SxFyO-24" style="edgeStyle=orthogonalEdgeStyle;rounded=0;orthogonalLoop=1;jettySize=auto;html=1;exitX=0.5;exitY=1;exitDx=0;exitDy=0;entryX=0.5;entryY=0;entryDx=0;entryDy=0;" parent="1" source="apOiOVCQR8lEE52SxFyO-16" target="apOiOVCQR8lEE52SxFyO-22" edge="1">
          <mxGeometry relative="1" as="geometry" />
        </mxCell>
        <mxCell id="apOiOVCQR8lEE52SxFyO-16" value="tree.node = left_child" style="rounded=1;whiteSpace=wrap;html=1;" parent="1" vertex="1">
          <mxGeometry x="160" y="1180" width="160" height="60" as="geometry" />
        </mxCell>
        <mxCell id="apOiOVCQR8lEE52SxFyO-18" value="True" style="text;html=1;align=center;verticalAlign=middle;resizable=0;points=[];autosize=1;strokeColor=none;fillColor=none;" parent="1" vertex="1">
          <mxGeometry x="240" y="1130" width="50" height="30" as="geometry" />
        </mxCell>
        <mxCell id="apOiOVCQR8lEE52SxFyO-25" style="edgeStyle=orthogonalEdgeStyle;rounded=0;orthogonalLoop=1;jettySize=auto;html=1;exitX=0.5;exitY=1;exitDx=0;exitDy=0;entryX=1;entryY=0.5;entryDx=0;entryDy=0;" parent="1" source="apOiOVCQR8lEE52SxFyO-19" target="apOiOVCQR8lEE52SxFyO-22" edge="1">
          <mxGeometry relative="1" as="geometry" />
        </mxCell>
        <mxCell id="apOiOVCQR8lEE52SxFyO-19" value="tree.node = right_child" style="rounded=1;whiteSpace=wrap;html=1;" parent="1" vertex="1">
          <mxGeometry x="400" y="1030" width="150" height="60" as="geometry" />
        </mxCell>
        <mxCell id="apOiOVCQR8lEE52SxFyO-21" value="False" style="text;html=1;align=center;verticalAlign=middle;resizable=0;points=[];autosize=1;strokeColor=none;fillColor=none;" parent="1" vertex="1">
          <mxGeometry x="310" y="1030" width="50" height="30" as="geometry" />
        </mxCell>
        <mxCell id="apOiOVCQR8lEE52SxFyO-26" style="edgeStyle=orthogonalEdgeStyle;rounded=0;orthogonalLoop=1;jettySize=auto;html=1;exitX=0.5;exitY=1;exitDx=0;exitDy=0;entryX=0.5;entryY=0;entryDx=0;entryDy=0;" parent="1" source="apOiOVCQR8lEE52SxFyO-22" target="apOiOVCQR8lEE52SxFyO-23" edge="1">
          <mxGeometry relative="1" as="geometry" />
        </mxCell>
        <mxCell id="apOiOVCQR8lEE52SxFyO-22" value="i++" style="rounded=1;whiteSpace=wrap;html=1;" parent="1" vertex="1">
          <mxGeometry x="180" y="1300" width="120" height="60" as="geometry" />
        </mxCell>
        <mxCell id="apOiOVCQR8lEE52SxFyO-27" style="edgeStyle=orthogonalEdgeStyle;rounded=0;orthogonalLoop=1;jettySize=auto;html=1;exitX=0;exitY=0.5;exitDx=0;exitDy=0;entryX=0;entryY=0.5;entryDx=0;entryDy=0;" parent="1" source="apOiOVCQR8lEE52SxFyO-23" target="apOiOVCQR8lEE52SxFyO-6" edge="1">
          <mxGeometry relative="1" as="geometry">
            <Array as="points">
              <mxPoint x="110" y="1475" />
              <mxPoint x="110" y="865" />
            </Array>
          </mxGeometry>
        </mxCell>
        <mxCell id="apOiOVCQR8lEE52SxFyO-30" style="edgeStyle=orthogonalEdgeStyle;rounded=0;orthogonalLoop=1;jettySize=auto;html=1;exitX=0.5;exitY=1;exitDx=0;exitDy=0;entryX=0.5;entryY=0;entryDx=0;entryDy=0;" parent="1" source="apOiOVCQR8lEE52SxFyO-23" target="apOiOVCQR8lEE52SxFyO-29" edge="1">
          <mxGeometry relative="1" as="geometry" />
        </mxCell>
        <mxCell id="apOiOVCQR8lEE52SxFyO-23" value="i &amp;lt; aarray.lenght" style="rhombus;whiteSpace=wrap;html=1;" parent="1" vertex="1">
          <mxGeometry x="185" y="1420" width="110" height="110" as="geometry" />
        </mxCell>
        <mxCell id="apOiOVCQR8lEE52SxFyO-28" value="True" style="text;html=1;align=center;verticalAlign=middle;resizable=0;points=[];autosize=1;strokeColor=none;fillColor=none;" parent="1" vertex="1">
          <mxGeometry x="140" y="1450" width="50" height="30" as="geometry" />
        </mxCell>
        <mxCell id="apOiOVCQR8lEE52SxFyO-33" style="edgeStyle=orthogonalEdgeStyle;rounded=0;orthogonalLoop=1;jettySize=auto;html=1;exitX=0.5;exitY=1;exitDx=0;exitDy=0;entryX=0.5;entryY=0;entryDx=0;entryDy=0;" parent="1" source="apOiOVCQR8lEE52SxFyO-29" target="apOiOVCQR8lEE52SxFyO-32" edge="1">
          <mxGeometry relative="1" as="geometry" />
        </mxCell>
        <mxCell id="apOiOVCQR8lEE52SxFyO-29" value="print array" style="rounded=1;whiteSpace=wrap;html=1;" parent="1" vertex="1">
          <mxGeometry x="180" y="1590" width="120" height="60" as="geometry" />
        </mxCell>
        <mxCell id="apOiOVCQR8lEE52SxFyO-31" value="False" style="text;html=1;align=center;verticalAlign=middle;resizable=0;points=[];autosize=1;strokeColor=none;fillColor=none;" parent="1" vertex="1">
          <mxGeometry x="240" y="1530" width="50" height="30" as="geometry" />
        </mxCell>
        <mxCell id="apOiOVCQR8lEE52SxFyO-32" value="End" style="ellipse;whiteSpace=wrap;html=1;" parent="1" vertex="1">
          <mxGeometry x="180" y="1720" width="120" height="80" as="geometry" />
        </mxCell>
        <mxCell id="K3X2iz20J7sULDPaeyyS-3" style="edgeStyle=orthogonalEdgeStyle;rounded=0;orthogonalLoop=1;jettySize=auto;html=1;exitX=0.5;exitY=1;exitDx=0;exitDy=0;entryX=0.5;entryY=0;entryDx=0;entryDy=0;" parent="1" source="K3X2iz20J7sULDPaeyyS-1" target="apOiOVCQR8lEE52SxFyO-6" edge="1">
          <mxGeometry relative="1" as="geometry" />
        </mxCell>
        <mxCell id="K3X2iz20J7sULDPaeyyS-4" style="edgeStyle=orthogonalEdgeStyle;rounded=0;orthogonalLoop=1;jettySize=auto;html=1;exitX=1;exitY=0.5;exitDx=0;exitDy=0;entryX=0;entryY=0.5;entryDx=0;entryDy=0;" parent="1" source="K3X2iz20J7sULDPaeyyS-1" target="K3X2iz20J7sULDPaeyyS-2" edge="1">
          <mxGeometry relative="1" as="geometry" />
        </mxCell>
        <mxCell id="K3X2iz20J7sULDPaeyyS-1" value="tree = None" style="rhombus;whiteSpace=wrap;html=1;" parent="1" vertex="1">
          <mxGeometry x="200" y="580" width="80" height="80" as="geometry" />
        </mxCell>
        <mxCell id="K3X2iz20J7sULDPaeyyS-2" value="create root node" style="rounded=1;whiteSpace=wrap;html=1;" parent="1" vertex="1">
          <mxGeometry x="360" y="590" width="120" height="60" as="geometry" />
        </mxCell>
        <mxCell id="K3X2iz20J7sULDPaeyyS-10" value="True" style="text;html=1;align=center;verticalAlign=middle;resizable=0;points=[];autosize=1;strokeColor=none;fillColor=none;" parent="1" vertex="1">
          <mxGeometry x="280" y="590" width="50" height="30" as="geometry" />
        </mxCell>
        <mxCell id="K3X2iz20J7sULDPaeyyS-11" value="False" style="text;html=1;align=center;verticalAlign=middle;resizable=0;points=[];autosize=1;strokeColor=none;fillColor=none;" parent="1" vertex="1">
          <mxGeometry x="245" y="660" width="50" height="30" as="geometry" />
        </mxCell>
      </root>
    </mxGraphModel>
  </diagram>
  <diagram id="yW9xH_PwRyiFvWiBO88z" name="heap sort">
    <mxGraphModel dx="1434" dy="756" grid="1" gridSize="10" guides="1" tooltips="1" connect="1" arrows="1" fold="1" page="1" pageScale="1" pageWidth="850" pageHeight="1100" math="0" shadow="0">
      <root>
        <mxCell id="0" />
        <mxCell id="1" parent="0" />
        <mxCell id="6K-F0Al67xf37Y77QAyE-1" value="Start" style="ellipse;whiteSpace=wrap;html=1;" parent="1" vertex="1">
          <mxGeometry x="170" y="70" width="120" height="80" as="geometry" />
        </mxCell>
        <mxCell id="6K-F0Al67xf37Y77QAyE-17" style="edgeStyle=orthogonalEdgeStyle;rounded=0;orthogonalLoop=1;jettySize=auto;html=1;exitX=0.5;exitY=1;exitDx=0;exitDy=0;entryX=0.5;entryY=0;entryDx=0;entryDy=0;" parent="1" source="6K-F0Al67xf37Y77QAyE-2" target="6K-F0Al67xf37Y77QAyE-11" edge="1">
          <mxGeometry relative="1" as="geometry" />
        </mxCell>
        <mxCell id="6K-F0Al67xf37Y77QAyE-2" value="Array[n]&lt;div&gt;i&lt;/div&gt;" style="rounded=1;whiteSpace=wrap;html=1;" parent="1" vertex="1">
          <mxGeometry x="643" y="210" width="120" height="60" as="geometry" />
        </mxCell>
        <mxCell id="6K-F0Al67xf37Y77QAyE-3" value="i = n/2 - 1" style="rounded=1;whiteSpace=wrap;html=1;" parent="1" vertex="1">
          <mxGeometry x="170" y="320" width="120" height="60" as="geometry" />
        </mxCell>
        <mxCell id="6K-F0Al67xf37Y77QAyE-6" style="edgeStyle=orthogonalEdgeStyle;rounded=0;orthogonalLoop=1;jettySize=auto;html=1;exitX=0.5;exitY=1;exitDx=0;exitDy=0;entryX=0.5;entryY=0;entryDx=0;entryDy=0;" parent="1" source="6K-F0Al67xf37Y77QAyE-4" target="6K-F0Al67xf37Y77QAyE-5" edge="1">
          <mxGeometry relative="1" as="geometry" />
        </mxCell>
        <mxCell id="6K-F0Al67xf37Y77QAyE-4" value="i &amp;gt; 0" style="rhombus;whiteSpace=wrap;html=1;" parent="1" vertex="1">
          <mxGeometry x="190" y="430" width="80" height="80" as="geometry" />
        </mxCell>
        <mxCell id="6K-F0Al67xf37Y77QAyE-5" value="heap(array)" style="rounded=1;whiteSpace=wrap;html=1;" parent="1" vertex="1">
          <mxGeometry x="170" y="560" width="120" height="60" as="geometry" />
        </mxCell>
        <mxCell id="6K-F0Al67xf37Y77QAyE-7" value="True" style="text;html=1;align=center;verticalAlign=middle;resizable=0;points=[];autosize=1;strokeColor=none;fillColor=none;" parent="1" vertex="1">
          <mxGeometry x="235" y="510" width="50" height="30" as="geometry" />
        </mxCell>
        <mxCell id="6K-F0Al67xf37Y77QAyE-8" value="i--" style="rounded=1;whiteSpace=wrap;html=1;" parent="1" vertex="1">
          <mxGeometry x="170" y="660" width="120" height="60" as="geometry" />
        </mxCell>
        <mxCell id="6K-F0Al67xf37Y77QAyE-16" style="edgeStyle=orthogonalEdgeStyle;rounded=0;orthogonalLoop=1;jettySize=auto;html=1;exitX=0.5;exitY=1;exitDx=0;exitDy=0;entryX=0.5;entryY=0;entryDx=0;entryDy=0;" parent="1" source="6K-F0Al67xf37Y77QAyE-9" target="6K-F0Al67xf37Y77QAyE-2" edge="1">
          <mxGeometry relative="1" as="geometry" />
        </mxCell>
        <mxCell id="6K-F0Al67xf37Y77QAyE-9" value="Start" style="ellipse;whiteSpace=wrap;html=1;" parent="1" vertex="1">
          <mxGeometry x="643" y="70" width="120" height="80" as="geometry" />
        </mxCell>
        <mxCell id="6K-F0Al67xf37Y77QAyE-18" style="edgeStyle=orthogonalEdgeStyle;rounded=0;orthogonalLoop=1;jettySize=auto;html=1;exitX=0.5;exitY=1;exitDx=0;exitDy=0;entryX=0.5;entryY=0;entryDx=0;entryDy=0;" parent="1" source="6K-F0Al67xf37Y77QAyE-11" target="6K-F0Al67xf37Y77QAyE-12" edge="1">
          <mxGeometry relative="1" as="geometry" />
        </mxCell>
        <mxCell id="6K-F0Al67xf37Y77QAyE-11" value="i = n/2 - 1" style="rounded=1;whiteSpace=wrap;html=1;" parent="1" vertex="1">
          <mxGeometry x="643" y="350" width="120" height="60" as="geometry" />
        </mxCell>
        <mxCell id="6K-F0Al67xf37Y77QAyE-19" style="edgeStyle=orthogonalEdgeStyle;rounded=0;orthogonalLoop=1;jettySize=auto;html=1;exitX=0.5;exitY=1;exitDx=0;exitDy=0;entryX=0.5;entryY=0;entryDx=0;entryDy=0;" parent="1" source="6K-F0Al67xf37Y77QAyE-12" target="6K-F0Al67xf37Y77QAyE-13" edge="1">
          <mxGeometry relative="1" as="geometry" />
        </mxCell>
        <mxCell id="6K-F0Al67xf37Y77QAyE-12" value="heap(array, n, i)" style="rounded=1;whiteSpace=wrap;html=1;" parent="1" vertex="1">
          <mxGeometry x="643" y="460" width="120" height="60" as="geometry" />
        </mxCell>
        <mxCell id="6K-F0Al67xf37Y77QAyE-20" style="edgeStyle=orthogonalEdgeStyle;rounded=0;orthogonalLoop=1;jettySize=auto;html=1;exitX=0.5;exitY=1;exitDx=0;exitDy=0;entryX=0.5;entryY=0;entryDx=0;entryDy=0;" parent="1" source="6K-F0Al67xf37Y77QAyE-13" target="6K-F0Al67xf37Y77QAyE-14" edge="1">
          <mxGeometry relative="1" as="geometry" />
        </mxCell>
        <mxCell id="6K-F0Al67xf37Y77QAyE-13" value="n--" style="rounded=1;whiteSpace=wrap;html=1;" parent="1" vertex="1">
          <mxGeometry x="643" y="560" width="120" height="60" as="geometry" />
        </mxCell>
        <mxCell id="6K-F0Al67xf37Y77QAyE-15" style="edgeStyle=orthogonalEdgeStyle;rounded=0;orthogonalLoop=1;jettySize=auto;html=1;exitX=0;exitY=0.5;exitDx=0;exitDy=0;entryX=0;entryY=0.5;entryDx=0;entryDy=0;" parent="1" source="6K-F0Al67xf37Y77QAyE-14" target="6K-F0Al67xf37Y77QAyE-11" edge="1">
          <mxGeometry relative="1" as="geometry">
            <Array as="points">
              <mxPoint x="600" y="700" />
              <mxPoint x="600" y="380" />
            </Array>
          </mxGeometry>
        </mxCell>
        <mxCell id="6K-F0Al67xf37Y77QAyE-25" style="edgeStyle=orthogonalEdgeStyle;rounded=0;orthogonalLoop=1;jettySize=auto;html=1;exitX=0.5;exitY=1;exitDx=0;exitDy=0;entryX=0.5;entryY=0;entryDx=0;entryDy=0;" parent="1" source="6K-F0Al67xf37Y77QAyE-14" target="6K-F0Al67xf37Y77QAyE-22" edge="1">
          <mxGeometry relative="1" as="geometry" />
        </mxCell>
        <mxCell id="6K-F0Al67xf37Y77QAyE-14" value="i = 0" style="rhombus;whiteSpace=wrap;html=1;" parent="1" vertex="1">
          <mxGeometry x="663" y="660" width="80" height="80" as="geometry" />
        </mxCell>
        <mxCell id="6K-F0Al67xf37Y77QAyE-21" value="False" style="text;html=1;align=center;verticalAlign=middle;resizable=0;points=[];autosize=1;strokeColor=none;fillColor=none;" parent="1" vertex="1">
          <mxGeometry x="613" y="670" width="50" height="30" as="geometry" />
        </mxCell>
        <mxCell id="6K-F0Al67xf37Y77QAyE-26" style="edgeStyle=orthogonalEdgeStyle;rounded=0;orthogonalLoop=1;jettySize=auto;html=1;exitX=0.5;exitY=1;exitDx=0;exitDy=0;entryX=0.5;entryY=0;entryDx=0;entryDy=0;" parent="1" source="6K-F0Al67xf37Y77QAyE-22" target="6K-F0Al67xf37Y77QAyE-24" edge="1">
          <mxGeometry relative="1" as="geometry" />
        </mxCell>
        <mxCell id="6K-F0Al67xf37Y77QAyE-22" value="&lt;div&gt;i = n-1&lt;/div&gt;" style="rounded=1;whiteSpace=wrap;html=1;" parent="1" vertex="1">
          <mxGeometry x="643" y="780" width="120" height="60" as="geometry" />
        </mxCell>
        <mxCell id="6K-F0Al67xf37Y77QAyE-28" style="edgeStyle=orthogonalEdgeStyle;rounded=0;orthogonalLoop=1;jettySize=auto;html=1;exitX=0.5;exitY=1;exitDx=0;exitDy=0;entryX=0.5;entryY=0;entryDx=0;entryDy=0;" parent="1" source="6K-F0Al67xf37Y77QAyE-24" target="6K-F0Al67xf37Y77QAyE-27" edge="1">
          <mxGeometry relative="1" as="geometry" />
        </mxCell>
        <mxCell id="6K-F0Al67xf37Y77QAyE-24" value="array[0] = array[i]" style="rounded=1;whiteSpace=wrap;html=1;" parent="1" vertex="1">
          <mxGeometry x="643" y="910" width="120" height="60" as="geometry" />
        </mxCell>
        <mxCell id="6K-F0Al67xf37Y77QAyE-32" style="edgeStyle=orthogonalEdgeStyle;rounded=0;orthogonalLoop=1;jettySize=auto;html=1;exitX=0.5;exitY=1;exitDx=0;exitDy=0;entryX=0.5;entryY=0;entryDx=0;entryDy=0;" parent="1" source="6K-F0Al67xf37Y77QAyE-27" target="6K-F0Al67xf37Y77QAyE-30" edge="1">
          <mxGeometry relative="1" as="geometry" />
        </mxCell>
        <mxCell id="6K-F0Al67xf37Y77QAyE-27" value="heap(array, n, 0)" style="rounded=1;whiteSpace=wrap;html=1;" parent="1" vertex="1">
          <mxGeometry x="643" y="1020" width="120" height="60" as="geometry" />
        </mxCell>
        <mxCell id="6K-F0Al67xf37Y77QAyE-29" value="True" style="text;html=1;align=center;verticalAlign=middle;resizable=0;points=[];autosize=1;strokeColor=none;fillColor=none;" parent="1" vertex="1">
          <mxGeometry x="695" y="738" width="50" height="30" as="geometry" />
        </mxCell>
        <mxCell id="6K-F0Al67xf37Y77QAyE-33" style="edgeStyle=orthogonalEdgeStyle;rounded=0;orthogonalLoop=1;jettySize=auto;html=1;exitX=0.5;exitY=1;exitDx=0;exitDy=0;entryX=0.5;entryY=0;entryDx=0;entryDy=0;" parent="1" source="6K-F0Al67xf37Y77QAyE-30" target="6K-F0Al67xf37Y77QAyE-31" edge="1">
          <mxGeometry relative="1" as="geometry" />
        </mxCell>
        <mxCell id="6K-F0Al67xf37Y77QAyE-30" value="n--" style="rounded=1;whiteSpace=wrap;html=1;" parent="1" vertex="1">
          <mxGeometry x="643" y="1130" width="120" height="60" as="geometry" />
        </mxCell>
        <mxCell id="6K-F0Al67xf37Y77QAyE-34" style="edgeStyle=orthogonalEdgeStyle;rounded=0;orthogonalLoop=1;jettySize=auto;html=1;exitX=0;exitY=0.5;exitDx=0;exitDy=0;entryX=0;entryY=0.5;entryDx=0;entryDy=0;" parent="1" source="6K-F0Al67xf37Y77QAyE-31" target="6K-F0Al67xf37Y77QAyE-22" edge="1">
          <mxGeometry relative="1" as="geometry">
            <Array as="points">
              <mxPoint x="580" y="1290" />
              <mxPoint x="580" y="810" />
            </Array>
          </mxGeometry>
        </mxCell>
        <mxCell id="6K-F0Al67xf37Y77QAyE-37" style="edgeStyle=orthogonalEdgeStyle;rounded=0;orthogonalLoop=1;jettySize=auto;html=1;exitX=0.5;exitY=1;exitDx=0;exitDy=0;entryX=0.5;entryY=0;entryDx=0;entryDy=0;" parent="1" source="6K-F0Al67xf37Y77QAyE-31" target="6K-F0Al67xf37Y77QAyE-36" edge="1">
          <mxGeometry relative="1" as="geometry" />
        </mxCell>
        <mxCell id="6K-F0Al67xf37Y77QAyE-31" value="i=1" style="rhombus;whiteSpace=wrap;html=1;" parent="1" vertex="1">
          <mxGeometry x="663" y="1250" width="80" height="80" as="geometry" />
        </mxCell>
        <mxCell id="6K-F0Al67xf37Y77QAyE-35" value="False" style="text;html=1;align=center;verticalAlign=middle;resizable=0;points=[];autosize=1;strokeColor=none;fillColor=none;" parent="1" vertex="1">
          <mxGeometry x="620" y="1258" width="50" height="30" as="geometry" />
        </mxCell>
        <mxCell id="6K-F0Al67xf37Y77QAyE-36" value="sorted array" style="rounded=1;whiteSpace=wrap;html=1;" parent="1" vertex="1">
          <mxGeometry x="643" y="1390" width="120" height="60" as="geometry" />
        </mxCell>
        <mxCell id="6K-F0Al67xf37Y77QAyE-38" value="True" style="text;html=1;align=center;verticalAlign=middle;resizable=0;points=[];autosize=1;strokeColor=none;fillColor=none;" parent="1" vertex="1">
          <mxGeometry x="705" y="1318" width="50" height="30" as="geometry" />
        </mxCell>
        <mxCell id="6K-F0Al67xf37Y77QAyE-39" value="Array[n]" style="rounded=1;whiteSpace=wrap;html=1;" parent="1" vertex="1">
          <mxGeometry x="170" y="200" width="120" height="60" as="geometry" />
        </mxCell>
      </root>
    </mxGraphModel>
  </diagram>
</mxfile>
